<?xml version="1.0" encoding="UTF-8" standalone="no"?>
<svg
   version="1.1"
   width="512"
   height="512"
   id="svg4846"
   sodipodi:docname="menuus.svg"
   inkscape:version="1.2.2 (b0a8486541, 2022-12-01)"
   xmlns:inkscape="http://www.inkscape.org/namespaces/inkscape"
   xmlns:sodipodi="http://sodipodi.sourceforge.net/DTD/sodipodi-0.dtd"
   xmlns="http://www.w3.org/2000/svg"
   xmlns:svg="http://www.w3.org/2000/svg">
  <defs
     id="defs4850" />
  <sodipodi:namedview
     id="namedview4848"
     pagecolor="#ffffff"
     bordercolor="#000000"
     borderopacity="0.25"
     inkscape:showpageshadow="2"
     inkscape:pageopacity="0.0"
     inkscape:pagecheckerboard="0"
     inkscape:deskcolor="#d1d1d1"
     showgrid="false"
     inkscape:zoom="1.1816406"
     inkscape:cx="199.72231"
     inkscape:cy="256.84628"
     inkscape:window-width="1600"
     inkscape:window-height="765"
     inkscape:window-x="0"
     inkscape:window-y="0"
     inkscape:window-maximized="1"
     inkscape:current-layer="svg4846" />
  <path
     d="M0 0 C158.4 0 316.8 0 480 0 C480 21.12 480 42.24 480 64 C472.08 64 464.16 64 456 64 C456 77.2 456 90.4 456 104 C434.88 104 413.76 104 392 104 C392 90.8 392 77.6 392 64 C352.4 64 312.8 64 272 64 C272 77.2 272 90.4 272 104 C250.88 104 229.76 104 208 104 C208 90.8 208 77.6 208 64 C168.4 64 128.8 64 88 64 C88 77.2 88 90.4 88 104 C66.88 104 45.76 104 24 104 C24 90.8 24 77.6 24 64 C16.08 64 8.16 64 0 64 C0 42.88 0 21.76 0 0 Z M16 16 C16 26.56 16 37.12 16 48 C163.84 48 311.68 48 464 48 C464 37.44 464 26.88 464 16 C316.16 16 168.32 16 16 16 Z M40 64 C40 71.92 40 79.84 40 88 C50.56 88 61.12 88 72 88 C72 80.08 72 72.16 72 64 C61.44 64 50.88 64 40 64 Z M224 64 C224 71.92 224 79.84 224 88 C234.56 88 245.12 88 256 88 C256 80.08 256 72.16 256 64 C245.44 64 234.88 64 224 64 Z M408 64 C408 71.92 408 79.84 408 88 C418.56 88 429.12 88 440 88 C440 80.08 440 72.16 440 64 C429.44 64 418.88 64 408 64 Z "
     fill="#000000"
     transform="translate(16,352)"
     id="path4840"
     style="fill:#ffffff;fill-opacity:1;stroke-width:0.6;stroke-dasharray:none" />
  <path
     d="M0 0 C158.4 0 316.8 0 480 0 C480 21.12 480 42.24 480 64 C472.08 64 464.16 64 456 64 C456 77.2 456 90.4 456 104 C434.88 104 413.76 104 392 104 C392 90.8 392 77.6 392 64 C352.4 64 312.8 64 272 64 C272 77.2 272 90.4 272 104 C250.88 104 229.76 104 208 104 C208 90.8 208 77.6 208 64 C168.4 64 128.8 64 88 64 C88 77.2 88 90.4 88 104 C66.88 104 45.76 104 24 104 C24 90.8 24 77.6 24 64 C16.08 64 8.16 64 0 64 C0 42.88 0 21.76 0 0 Z M16 16 C16 26.56 16 37.12 16 48 C163.84 48 311.68 48 464 48 C464 37.44 464 26.88 464 16 C316.16 16 168.32 16 16 16 Z M40 64 C40 71.92 40 79.84 40 88 C50.56 88 61.12 88 72 88 C72 80.08 72 72.16 72 64 C61.44 64 50.88 64 40 64 Z M224 64 C224 71.92 224 79.84 224 88 C234.56 88 245.12 88 256 88 C256 80.08 256 72.16 256 64 C245.44 64 234.88 64 224 64 Z M408 64 C408 71.92 408 79.84 408 88 C418.56 88 429.12 88 440 88 C440 80.08 440 72.16 440 64 C429.44 64 418.88 64 408 64 Z "
     fill="#000000"
     transform="translate(16,216)"
     id="path4842"
     style="fill:#ffffff;fill-opacity:1;stroke-width:0.6;stroke-dasharray:none" />
  <path
     d="M0 0 C158.4 0 316.8 0 480 0 C480 21.12 480 42.24 480 64 C472.08 64 464.16 64 456 64 C456 77.2 456 90.4 456 104 C434.88 104 413.76 104 392 104 C392 90.8 392 77.6 392 64 C352.4 64 312.8 64 272 64 C272 77.2 272 90.4 272 104 C250.88 104 229.76 104 208 104 C208 90.8 208 77.6 208 64 C168.4 64 128.8 64 88 64 C88 77.2 88 90.4 88 104 C66.88 104 45.76 104 24 104 C24 90.8 24 77.6 24 64 C16.08 64 8.16 64 0 64 C0 42.88 0 21.76 0 0 Z M16 16 C16 26.56 16 37.12 16 48 C163.84 48 311.68 48 464 48 C464 37.44 464 26.88 464 16 C316.16 16 168.32 16 16 16 Z M40 64 C40 71.92 40 79.84 40 88 C50.56 88 61.12 88 72 88 C72 80.08 72 72.16 72 64 C61.44 64 50.88 64 40 64 Z M224 64 C224 71.92 224 79.84 224 88 C234.56 88 245.12 88 256 88 C256 80.08 256 72.16 256 64 C245.44 64 234.88 64 224 64 Z M408 64 C408 71.92 408 79.84 408 88 C418.56 88 429.12 88 440 88 C440 80.08 440 72.16 440 64 C429.44 64 418.88 64 408 64 Z "
     fill="#000000"
     transform="translate(16,80)"
     id="path4844"
     style="fill:#ffffff;fill-opacity:1;stroke-width:0.6;stroke-dasharray:none" />
</svg>
