<?xml version="1.0" encoding="UTF-8" standalone="no"?>
<svg
   version="1.0"
   width="3264pt"
   height="1836pt"
   viewBox="0 0 3264 1836"
   preserveAspectRatio="xMidYMid"
   id="svg1692"
   xmlns="http://www.w3.org/2000/svg"
   xmlns:svg="http://www.w3.org/2000/svg">
  <style
     id="style1708">
.measure-arrow
{
}
.measure-label
{

}
.measure-line
{
}</style>
  <defs
     id="defs1696" />
  <g
     transform="matrix(0.1,0,0,-0.1,0,1836)"
     fill="#ffffff"
     stroke="none"
     id="g1690"
     class="UnoptimicedTransforms">
    <path
       d="M 1020.8554,9034.0925 V 1184.6458 H 2729.2738 4444.0904 V 7380.062 c 0,4371.823 -12.7968,6163.422 0,6235.407 17.5966,99.177 36.7923,100.777 100.7776,124.772 666.9118,229.193 1105.991,239.154 1812.3951,-207.953 28.8359,11.09 7.9982,63.985 -102.3768,262.34 l -1194.9328,2154.719 -531.0818,935.791 H 1020.8554 Z"
       id="path1676"
       style="fill:#ffffff;fill-opacity:0.918279;stroke-width:1.59964" />
    <path
       d="M 20166.547,1184.6458 11642.051,16885.138 h 3327.256 L 20166.547,1184.6458 21807.78,4561.4916 14969.307,16885.138"
       id="path1680"
       style="fill:#0369a1;fill-opacity:1;stroke:#0369a1;stroke-width:1.59964;stroke-opacity:1" />
    <path
       d="m 16890.235,16885.138 5960.269,-10771.993 1511.662,3405.6393 -4117.48,7366.3537 z"
       id="path1682"
       style="fill:#0369a1;fill-opacity:1;stroke:#0369a1;stroke-width:1.59964;stroke-opacity:1" />
    <path
       d="m 19353,14930 1981,-3614 59,1593 c 7,6 45,18 83,28 1260.068,295.228 2440.525,-1239.159 1651,-2445 -236.592,-340.224 -531.86,-541.7707 -884,-657 L 22133.336,9800.2203 23104,8201 c 30,-12 76,7 306,122 863.055,478.9848 1529.995,1032.5491 1929,1905 367.291,849.231 331.547,1771.615 -72,2572 -533.769,1076.473 -1726.127,1693.955 -2664.5,2089 -48.461,23.081 -95.626,41 -146.75,41 H 20929 Z"
       id="path1684"
       class="UnoptimicedTransforms"
       transform="matrix(1.5996427,0,0,1.5996427,-8793.6244,-6997.5266)"
       style="fill:#ffffff;fill-opacity:0.918279" />
    <path
       d="m 9690,9783 863,-1508 1292,-2230 549.311,-930 H 12419 l 1111,-1 1106,1 -1892,3505 -1394,2510 c -55,101 -96,160 -109,160 -205.831,-951.927 -617.092,-1312.1673 -1551,-1507 z"
       id="path1977"
       class="UnoptimicedTransforms"
       style="fill:#ffffff;fill-opacity:0.918279"
       transform="matrix(1.5996427,0,0,1.5996427,-10240.63,-6997.5266)" />
    <path
       d="m 22164.26,1184.6458 h 3124.103 l -7.999,6518.544 z"
       id="path1688"
       style="fill:#ffffff;fill-opacity:0.918279;stroke-width:1.59964" />
    <path
       style="fill:#0369a1;fill-opacity:1;stroke:none;stroke-width:39.9111;stroke-dasharray:none;stroke-opacity:1"
       d="M 10884.725,8712.6927 C 8656.5307,12818.112 6746.831,16336.403 6640.9508,16531.115 l -192.5075,354.023 H 8084.7877 9721.134 l 3250.242,-5857.374 c 1787.631,-3221.5565 3324.715,-5993.6573 3415.738,-6160.2256 l 165.496,-302.8508 -802.17,-1652.9331 c -441.194,-909.1138 -804.932,-1655.3026 -808.307,-1658.1977 -3.377,-2.8961 -1829.209,3353.7154 -4057.408,7459.1359 z"
       id="path351" />
  </g>
</svg>
